<svg width="300" height="301" viewBox="0 0 300 301" fill="none" xmlns="http://www.w3.org/2000/svg">
<rect width="300" height="301" fill="#1E1E1E"/>
<path id="Background" d="M0 0.5H300V300.5H0V0.5Z" fill="black"/>
<g id="Attitude Indicator">
<g id="Rectangle 1">
<rect x="94" y="100" width="100" height="100" fill="url(#paint0_linear_0_1)"/>
<rect x="94" y="100" width="100" height="100" fill="url(#paint1_linear_0_1)"/>
</g>
<rect id="Rectangle 2" x="112.147" y="156.382" width="19.5882" height="1.94118" fill="black" stroke="white"/>
<rect id="Rectangle 3" x="157.441" y="156.382" width="19.5882" height="1.94118" fill="black" stroke="white"/>
<rect id="Rectangle 4" x="129.794" y="156.382" width="1.94118" height="4.88235" fill="black" stroke="white"/>
<rect id="Rectangle 5" x="157.441" y="156.382" width="1.94118" height="4.88235" fill="black" stroke="white"/>
<path id="Polygon 1" d="M144.294 158.176C143.66 158.176 143.264 157.49 143.581 156.941C143.898 156.392 144.69 156.392 145.007 156.941C145.324 157.49 144.928 158.176 144.294 158.176Z" fill="black" stroke="white"/>
<line id="Line 1" x1="129.294" y1="137.824" x2="158.706" y2="137.824" stroke="white" stroke-width="2"/>
<line id="Line 5" x1="136.941" y1="149" x2="151.647" y2="149" stroke="white" stroke-width="2"/>
<line id="Line 8" x1="136.941" y1="183.706" x2="151.647" y2="183.706" stroke="white" stroke-width="2"/>
<line id="Line 7" x1="136.941" y1="167.824" x2="151.647" y2="167.824" stroke="white" stroke-width="2"/>
<line id="Line 6" x1="136.941" y1="128.412" x2="151.647" y2="128.412" stroke="white" stroke-width="2"/>
<line id="Line 4" x1="129.294" y1="192.529" x2="158.706" y2="192.529" stroke="white" stroke-width="2"/>
<line id="Line 3" x1="129.294" y1="174.294" x2="158.706" y2="174.294" stroke="white" stroke-width="2"/>
<line id="Line 2" x1="129.294" y1="118.412" x2="158.706" y2="118.412" stroke="white" stroke-width="2"/>
</g>
<g id="Airspeed">
<rect id="Rectangle 6" x="14.5" y="59.5" width="53.6875" height="219" fill="#606060" stroke="white"/>
<path id="Vector 1" d="M68.6875 166.632L89 173.737L83.4602 166.632L89 160.053L68.6875 166.632Z" fill="#FFD600" stroke="white"/>
</g>
<rect id="Nav" x="14.5" y="14.5" width="99" height="29" fill="#606060" stroke="white"/>
<g id="Heading">
<rect id="Rectangle 10" x="84.5" y="237.64" width="119" height="40.8605" fill="#606060" stroke="white"/>
<path id="Vector 2" d="M144.25 237.14L151 219L144.25 223.947L138 219L144.25 237.14Z" fill="#FFD600" stroke="white"/>
</g>
<rect id="Comm" x="191.5" y="14.5" width="99" height="29" fill="#606060" stroke="white"/>
<rect id="Altitude" x="216.5" y="59.5" width="74" height="219" fill="#606060" stroke="white"/>
<defs>
<linearGradient id="paint0_linear_0_1" x1="144" y1="100" x2="144" y2="200" gradientUnits="userSpaceOnUse">
<stop stop-color="#00D1FF"/>
<stop offset="0.572817" stop-color="#00D1FF"/>
<stop offset="0.572917" stop-color="#00D1FF" stop-opacity="0"/>
</linearGradient>
<linearGradient id="paint1_linear_0_1" x1="144" y1="100" x2="144" y2="200" gradientUnits="userSpaceOnUse">
<stop offset="0.572917" stop-color="#56300E" stop-opacity="0"/>
<stop offset="0.573017" stop-color="#56300E"/>
<stop offset="1" stop-color="#56300E"/>
</linearGradient>
</defs>
</svg>
