<svg width="300" height="301" viewBox="0 0 300 301" fill="none" xmlns="http://www.w3.org/2000/svg">
<rect width="300" height="301" fill="#1E1E1E"/>
<path id="Background" d="M0 0.5H300V300.5H0V0.5Z" fill="black"/>
<g id="Attitude Indicator">
<g id="Rectangle 1">
<rect x="65" y="70" width="170" height="170" fill="url(#paint0_linear_0_1)"/>
<rect x="65" y="70" width="170" height="170" fill="url(#paint1_linear_0_1)"/>
</g>
<rect id="Rectangle 2" x="95.5" y="165.5" width="34" height="4" fill="black" stroke="white"/>
<rect id="Rectangle 3" x="172.5" y="165.5" width="34" height="4" fill="black" stroke="white"/>
<rect id="Rectangle 4" x="125.5" y="165.5" width="4" height="9" fill="black" stroke="white"/>
<rect id="Rectangle 5" x="172.5" y="165.5" width="4" height="9" fill="black" stroke="white"/>
<path id="Polygon 1" d="M150.5 169.25C149.153 169.25 148.311 167.792 148.984 166.625C149.658 165.458 151.342 165.458 152.016 166.625C152.689 167.792 151.847 169.25 150.5 169.25Z" fill="black" stroke="white"/>
<line id="Line 1" x1="125" y1="135" x2="175" y2="135" stroke="white" stroke-width="2"/>
<line id="Line 5" x1="138" y1="154" x2="163" y2="154" stroke="white" stroke-width="2"/>
<line id="Line 8" x1="138" y1="213" x2="163" y2="213" stroke="white" stroke-width="2"/>
<line id="Line 7" x1="138" y1="186" x2="163" y2="186" stroke="white" stroke-width="2"/>
<line id="Line 6" x1="138" y1="119" x2="163" y2="119" stroke="white" stroke-width="2"/>
<line id="Line 4" x1="125" y1="228" x2="175" y2="228" stroke="white" stroke-width="2"/>
<line id="Line 3" x1="125" y1="197" x2="175" y2="197" stroke="white" stroke-width="2"/>
<line id="Line 2" x1="125" y1="102" x2="175" y2="102" stroke="white" stroke-width="2"/>
</g>
<g id="Airspeed">
<rect id="Rectangle 6" x="15.5" y="65.5" width="34" height="208" fill="#606060" stroke="white"/>
<path id="Vector 1" d="M50 167.25L63 174L59.4545 167.25L63 161L50 167.25Z" fill="#FFD600" stroke="white"/>
</g>
<rect id="Nav" x="15.5" y="14.5" width="99" height="29" fill="#606060" stroke="white"/>
<g id="Heading">
<rect id="Rectangle 10" x="90.5" y="263.5" width="119" height="29" fill="#606060" stroke="white"/>
<path id="Vector 2" d="M150.25 263L157 250L150.25 253.545L144 250L150.25 263Z" fill="#FFD600" stroke="white"/>
</g>
<rect id="Comm" x="185.5" y="14.5" width="99" height="29" fill="#606060" stroke="white"/>
<rect id="Altitude" x="245.5" y="65.5" width="44" height="208" fill="#606060" stroke="white"/>
<defs>
<linearGradient id="paint0_linear_0_1" x1="150" y1="70" x2="150" y2="240" gradientUnits="userSpaceOnUse">
<stop stop-color="#00D1FF"/>
<stop offset="0.572817" stop-color="#00D1FF"/>
<stop offset="0.572917" stop-color="#00D1FF" stop-opacity="0"/>
</linearGradient>
<linearGradient id="paint1_linear_0_1" x1="150" y1="70" x2="150" y2="240" gradientUnits="userSpaceOnUse">
<stop offset="0.572917" stop-color="#56300E" stop-opacity="0"/>
<stop offset="0.573017" stop-color="#56300E"/>
<stop offset="1" stop-color="#56300E"/>
</linearGradient>
</defs>
</svg>
